<svg xmlns="http://www.w3.org/2000/svg" viewBox="0 0 493.5 493.5"><g style="isolation:isolate"><path d="M221.64,414.92q-99.42-6.6-152.18-65.46l57.18-34.1q43.08,52.26,105.56,52.25,82.68,0,82.69-53.9A32.31,32.31,0,0,0,307,292.25q-7.92-9.35-30.79-16.23t-75.66-22.27Q99.36,224,99.37,172.88q0-37.4,32.54-62.71t89.73-31.9V37h51.91V78.82q68.61,4.41,111.72,38L346.56,152q-36.94-28.6-87.09-28.61-31.67,0-52.78,12.11t-21.11,31.35q0,24.21,56.3,40.16,110,31.35,135,52.26T402,308.75q0,39.62-33.42,67.94t-95,36v44H221.64Z" transform="translate(-2 -3.46)" style="fill:#f15a24"/></g><circle cx="246.75" cy="246.75" r="234.25" style="fill:none;stroke:#f15a24;stroke-miterlimit:10;stroke-width:25px"/></svg>